<svg xmlns="http://www.w3.org/2000/svg" width="1200" height="520" viewBox="0 0 1200 520" role="img" aria-label="Hermes Evolution daily infographic cockpit">
  <defs>
    <linearGradient id="bg" x1="0" y1="0" x2="1" y2="1">
      <stop offset="0" stop-color="#050816"/>
      <stop offset="0.48" stop-color="#10152b"/>
      <stop offset="1" stop-color="#070912"/>
    </linearGradient>
    <linearGradient id="barGrad" x1="0" y1="1" x2="0" y2="0">
      <stop offset="0" stop-color="#18213a"/>
      <stop offset="0.5" stop-color="#00ffff" stop-opacity="0.62"/>
      <stop offset="1" stop-color="#ff4fd8" stop-opacity="0.74"/>
    </linearGradient>
    <radialGradient id="orb" cx="50%" cy="50%" r="50%">
      <stop offset="0" stop-color="#00ffff" stop-opacity="0.76"/>
      <stop offset="0.52" stop-color="#7cf7ff" stop-opacity="0.20"/>
      <stop offset="1" stop-color="#00ffff" stop-opacity="0"/>
    </radialGradient>
    <filter id="softGlow" x="-30%" y="-30%" width="160%" height="160%">
      <feGaussianBlur stdDeviation="4" result="blur"/>
      <feMerge><feMergeNode in="blur"/><feMergeNode in="SourceGraphic"/></feMerge>
    </filter>
    <filter id="cardGlow" x="-18%" y="-18%" width="136%" height="136%">
      <feGaussianBlur stdDeviation="1.4" result="blur"/>
      <feMerge><feMergeNode in="blur"/><feMergeNode in="SourceGraphic"/></feMerge>
    </filter>
    <pattern id="scan" width="6" height="6" patternUnits="userSpaceOnUse">
      <path d="M0 0 H6" stroke="rgba(255,255,255,0.045)"/>
    </pattern>
    <style>
      text { font-family: 'Geist Mono', 'SFMono-Regular', Consolas, monospace; letter-spacing: .35px; }
    </style>
  </defs>
  <rect width="1200" height="520" fill="url(#bg)"/>
  <rect width="1200" height="520" fill="url(#scan)" opacity="0.42"/>
  <path d="M0 0 V520" stroke="rgba(0,255,255,0.065)"/>
<path d="M40 0 V520" stroke="rgba(0,255,255,0.028)"/>
<path d="M80 0 V520" stroke="rgba(0,255,255,0.028)"/>
<path d="M120 0 V520" stroke="rgba(0,255,255,0.028)"/>
<path d="M160 0 V520" stroke="rgba(0,255,255,0.065)"/>
<path d="M200 0 V520" stroke="rgba(0,255,255,0.028)"/>
<path d="M240 0 V520" stroke="rgba(0,255,255,0.028)"/>
<path d="M280 0 V520" stroke="rgba(0,255,255,0.028)"/>
<path d="M320 0 V520" stroke="rgba(0,255,255,0.065)"/>
<path d="M360 0 V520" stroke="rgba(0,255,255,0.028)"/>
<path d="M400 0 V520" stroke="rgba(0,255,255,0.028)"/>
<path d="M440 0 V520" stroke="rgba(0,255,255,0.028)"/>
<path d="M480 0 V520" stroke="rgba(0,255,255,0.065)"/>
<path d="M520 0 V520" stroke="rgba(0,255,255,0.028)"/>
<path d="M560 0 V520" stroke="rgba(0,255,255,0.028)"/>
<path d="M600 0 V520" stroke="rgba(0,255,255,0.028)"/>
<path d="M640 0 V520" stroke="rgba(0,255,255,0.065)"/>
<path d="M680 0 V520" stroke="rgba(0,255,255,0.028)"/>
<path d="M720 0 V520" stroke="rgba(0,255,255,0.028)"/>
<path d="M760 0 V520" stroke="rgba(0,255,255,0.028)"/>
<path d="M800 0 V520" stroke="rgba(0,255,255,0.065)"/>
<path d="M840 0 V520" stroke="rgba(0,255,255,0.028)"/>
<path d="M880 0 V520" stroke="rgba(0,255,255,0.028)"/>
<path d="M920 0 V520" stroke="rgba(0,255,255,0.028)"/>
<path d="M960 0 V520" stroke="rgba(0,255,255,0.065)"/>
<path d="M1000 0 V520" stroke="rgba(0,255,255,0.028)"/>
<path d="M1040 0 V520" stroke="rgba(0,255,255,0.028)"/>
<path d="M1080 0 V520" stroke="rgba(0,255,255,0.028)"/>
<path d="M1120 0 V520" stroke="rgba(0,255,255,0.065)"/>
<path d="M1160 0 V520" stroke="rgba(0,255,255,0.028)"/>
<path d="M1200 0 V520" stroke="rgba(0,255,255,0.028)"/>
<path d="M0 0 H1200" stroke="rgba(255,79,216,0.055)"/>
<path d="M0 40 H1200" stroke="rgba(255,79,216,0.024)"/>
<path d="M0 80 H1200" stroke="rgba(255,79,216,0.024)"/>
<path d="M0 120 H1200" stroke="rgba(255,79,216,0.024)"/>
<path d="M0 160 H1200" stroke="rgba(255,79,216,0.055)"/>
<path d="M0 200 H1200" stroke="rgba(255,79,216,0.024)"/>
<path d="M0 240 H1200" stroke="rgba(255,79,216,0.024)"/>
<path d="M0 280 H1200" stroke="rgba(255,79,216,0.024)"/>
<path d="M0 320 H1200" stroke="rgba(255,79,216,0.055)"/>
<path d="M0 360 H1200" stroke="rgba(255,79,216,0.024)"/>
<path d="M0 400 H1200" stroke="rgba(255,79,216,0.024)"/>
<path d="M0 440 H1200" stroke="rgba(255,79,216,0.024)"/>
<path d="M0 480 H1200" stroke="rgba(255,79,216,0.055)"/>
<path d="M0 520 H1200" stroke="rgba(255,79,216,0.024)"/>
  <circle cx="1058" cy="78" r="142" fill="url(#orb)" filter="url(#softGlow)"/>
  <rect x="28" y="26" width="1144" height="468" rx="24" fill="rgba(255,255,255,0.028)" stroke="rgba(0,255,255,0.20)"/>
  <path d="M54 124 H1146" stroke="rgba(0,255,255,0.22)"/>
  <path d="M54 260 H1146" stroke="rgba(255,79,216,0.18)"/>
  <path d="M54 124 H240" stroke="#00ffff" stroke-width="2" opacity="0.72"/>
  <path d="M938 260 H1146" stroke="#ff4fd8" stroke-width="2" opacity="0.56"/>
  <text x="54" y="75" font-size="38" font-weight="300" fill="#ffffff" opacity="1.00">HERMES EVOLUTION</text>
  <text x="56" y="102" font-size="12" font-weight="600" fill="#00ffff" opacity="0.64">BAOYU DASHBOARD × TOUCHDESIGNER COMPOSITOR</text>
  <text x="874" y="66" font-size="11" font-weight="600" fill="#ffffff" opacity="0.46">UPDATED</text>
  <text x="874" y="92" font-size="18" font-weight="400" fill="#ffffff" opacity="0.86">2026-07-29 00:53 CST</text>
  <text x="874" y="114" font-size="11" font-weight="400" fill="#ffffff" opacity="0.44">Snapshot 2026-07-28 · privacy-safe public signal</text>
  <g filter="url(#cardGlow)">
<rect x="54" y="146" width="204" height="98" rx="14" fill="rgba(7,11,22,0.72)" stroke="#00ffff" stroke-opacity="0.34"/>
<path d="M70 228 H242" stroke="#00ffff" stroke-opacity="0.32" stroke-width="1"/>
<circle cx="232" cy="170" r="3.5" fill="#00ffff" opacity="0.78"/>
</g>
<text x="72" y="175" font-size="11" font-weight="600" fill="#ffffff" opacity="0.58">SKILLS</text>
<text x="72" y="210" font-size="29" font-weight="300" fill="#ffffff" opacity="1.00">116</text>
<text x="72" y="233" font-size="11" font-weight="400" fill="#ffffff" opacity="0.48">active 116</text>
  <g filter="url(#cardGlow)">
<rect x="280" y="146" width="204" height="98" rx="14" fill="rgba(7,11,22,0.72)" stroke="#ff4fd8" stroke-opacity="0.34"/>
<path d="M296 228 H468" stroke="#ff4fd8" stroke-opacity="0.32" stroke-width="1"/>
<circle cx="458" cy="170" r="3.5" fill="#ff4fd8" opacity="0.78"/>
</g>
<text x="298" y="175" font-size="11" font-weight="600" fill="#ffffff" opacity="0.58">SKILL DELTA</text>
<text x="298" y="210" font-size="29" font-weight="300" fill="#ffffff" opacity="1.00">+1 / Δ5 / -0</text>
<text x="298" y="233" font-size="11" font-weight="400" fill="#ffffff" opacity="0.48">activity +26 · patches +2</text>
  <g filter="url(#cardGlow)">
<rect x="506" y="146" width="204" height="98" rx="14" fill="rgba(7,11,22,0.72)" stroke="#7cf7ff" stroke-opacity="0.34"/>
<path d="M522 228 H694" stroke="#7cf7ff" stroke-opacity="0.32" stroke-width="1"/>
<circle cx="684" cy="170" r="3.5" fill="#7cf7ff" opacity="0.78"/>
</g>
<text x="524" y="175" font-size="11" font-weight="600" fill="#ffffff" opacity="0.58">MEMORY</text>
<text x="524" y="210" font-size="29" font-weight="300" fill="#ffffff" opacity="1.00">11</text>
<text x="524" y="233" font-size="11" font-weight="400" fill="#ffffff" opacity="0.48">details redacted</text>
  <g filter="url(#cardGlow)">
<rect x="732" y="146" width="204" height="98" rx="14" fill="rgba(7,11,22,0.72)" stroke="#00ffff" stroke-opacity="0.34"/>
<path d="M748 228 H920" stroke="#00ffff" stroke-opacity="0.32" stroke-width="1"/>
<circle cx="910" cy="170" r="3.5" fill="#00ffff" opacity="0.78"/>
</g>
<text x="750" y="175" font-size="11" font-weight="600" fill="#ffffff" opacity="0.58">SIGNAL</text>
<text x="750" y="210" font-size="29" font-weight="300" fill="#ffffff" opacity="1.00">6</text>
<text x="750" y="233" font-size="11" font-weight="400" fill="#ffffff" opacity="0.48">today composite score</text>
  <g filter="url(#cardGlow)">
<rect x="958" y="146" width="204" height="98" rx="14" fill="rgba(7,11,22,0.72)" stroke="#ff4fd8" stroke-opacity="0.34"/>
<path d="M974 228 H1146" stroke="#ff4fd8" stroke-opacity="0.32" stroke-width="1"/>
<circle cx="1136" cy="170" r="3.5" fill="#ff4fd8" opacity="0.78"/>
</g>
<text x="976" y="175" font-size="11" font-weight="600" fill="#ffffff" opacity="0.58">CADENCE</text>
<text x="976" y="210" font-size="29" font-weight="300" fill="#ffffff" opacity="1.00">06:00</text>
<text x="976" y="233" font-size="11" font-weight="400" fill="#ffffff" opacity="0.48">daily CST automation</text>
  <text x="54" y="287" font-size="13" font-weight="700" fill="#00ffff" opacity="0.72">TODAY SIGNAL / EVENT BUS</text>
  <rect x="54" y="300" width="656" height="156" rx="18" fill="rgba(3,8,20,0.62)" stroke="rgba(0,255,255,0.18)"/>
  <path d="M78 300 V456" stroke="rgba(0,255,255,0.16)"/>
  <circle cx="78" cy="313" r="3.5" fill="#00ffff" opacity="0.82"/>
<text x="94" y="318" font-size="14" font-weight="400" fill="#ffffff" opacity="0.78">+ github-profile-dashboard-automa… — Use when automating GitHub profi…</text>
<circle cx="78" cy="339" r="3.5" fill="#ff4fd8" opacity="0.82"/>
<text x="94" y="344" font-size="14" font-weight="400" fill="#ffffff" opacity="0.78">Δ touchdesigner-mcp · patch +1, use +3, view +3</text>
<circle cx="78" cy="365" r="3.5" fill="#00ffff" opacity="0.82"/>
<text x="94" y="370" font-size="14" font-weight="400" fill="#ffffff" opacity="0.78">Δ agent-skill-discovery · use +2, view +2</text>
<circle cx="78" cy="391" r="3.5" fill="#ff4fd8" opacity="0.82"/>
<text x="94" y="396" font-size="14" font-weight="400" fill="#ffffff" opacity="0.78">Δ baoyu-infographic · use +3, view +3</text>
<circle cx="78" cy="417" r="3.5" fill="#00ffff" opacity="0.82"/>
<text x="94" y="422" font-size="14" font-weight="400" fill="#ffffff" opacity="0.78">Memory map stable · public details redacted.</text>
  <text x="744" y="287" font-size="13" font-weight="700" fill="#ff4fd8" opacity="0.72">7-DAY SIGNAL TIMELINE</text>
  <rect x="744" y="300" width="402" height="156" rx="18" fill="rgba(3,8,20,0.62)" stroke="rgba(255,79,216,0.18)"/>
  <rect x="780" y="394" width="34" height="21" rx="8" fill="url(#barGrad)" stroke="rgba(255,255,255,0.32)"/>
<text x="779" y="438" font-size="9" font-weight="400" fill="#ffffff" opacity="0.48">07-28</text>
<text x="790" y="386" font-size="10" font-weight="600" fill="#ffffff" opacity="0.78">6</text>
<rect x="832" y="399" width="34" height="16" rx="8" fill="url(#barGrad)" stroke="rgba(255,255,255,0.32)"/>
<text x="831" y="438" font-size="9" font-weight="400" fill="#ffffff" opacity="0.48">07-27</text>
<text x="842" y="391" font-size="10" font-weight="600" fill="#ffffff" opacity="0.78">2</text>
<rect x="884" y="327" width="34" height="88" rx="8" fill="url(#barGrad)" stroke="rgba(255,255,255,0.32)"/>
<text x="883" y="438" font-size="9" font-weight="400" fill="#ffffff" opacity="0.48">07-26</text>
<text x="894" y="319" font-size="10" font-weight="600" fill="#ffffff" opacity="0.78">60</text>
<polyline points="780.0,351.6 953.0,354.5 1126.0,312.0" fill="none" stroke="#ff4fd8" stroke-width="2.2" stroke-linecap="round" stroke-linejoin="round" opacity="0.86"/>
<path d="M780 356 H1126" stroke="rgba(255,255,255,0.16)"/>
  <path d="M165 474 C300 438, 390 500, 526 464 S770 446, 930 474" fill="none" stroke="rgba(0,255,255,0.28)" stroke-width="1.4"/>
<circle cx="165" cy="474" r="6" fill="#00ffff" opacity="0.76"/>
<circle cx="526" cy="464" r="6" fill="#ff4fd8" opacity="0.72"/>
<circle cx="930" cy="474" r="6" fill="#7cf7ff" opacity="0.58"/>
<text x="136" y="498" font-size="10" font-weight="400" fill="#ffffff" opacity="0.42">snapshot</text>
<text x="497" y="498" font-size="10" font-weight="400" fill="#ffffff" opacity="0.42">compositor</text>
<text x="900" y="498" font-size="10" font-weight="400" fill="#ffffff" opacity="0.42">profile</text>
  <text x="54" y="482" font-size="12" font-weight="400" fill="#ffffff" opacity="0.42">systems at the bottom · agents at the edge · orchestration in the loop</text>
  <path d="M28 440 C158 420, 238 432, 360 414" stroke="rgba(0,255,255,0.10)" fill="none"/>
  <path d="M834 78 C940 118, 1038 116, 1160 86" stroke="rgba(255,79,216,0.13)" fill="none"/>
</svg>
