<svg xmlns="http://www.w3.org/2000/svg" width="1200" height="520" viewBox="0 0 1200 520" role="img" aria-label="Hermes Evolution daily cockpit">
  <defs>
    <linearGradient id="edge" x1="0" x2="1" y1="0" y2="1">
      <stop offset="0" stop-color="#ffffff" stop-opacity="0.22"/>
      <stop offset="1" stop-color="#ffffff" stop-opacity="0.04"/>
    </linearGradient>
    <filter id="softGlow" x="-20%" y="-20%" width="140%" height="140%">
      <feGaussianBlur stdDeviation="2" result="blur"/>
      <feMerge><feMergeNode in="blur"/><feMergeNode in="SourceGraphic"/></feMerge>
    </filter>
    <style>
      text { font-family: 'Geist Mono', 'SFMono-Regular', Consolas, monospace; letter-spacing: .4px; }
    </style>
  </defs>
  <rect width="1200" height="520" fill="#1f2228"/>
  <path d="M0 0 V520" stroke="rgba(255,255,255,0.035)"/>
<path d="M48 0 V520" stroke="rgba(255,255,255,0.035)"/>
<path d="M96 0 V520" stroke="rgba(255,255,255,0.035)"/>
<path d="M144 0 V520" stroke="rgba(255,255,255,0.035)"/>
<path d="M192 0 V520" stroke="rgba(255,255,255,0.035)"/>
<path d="M240 0 V520" stroke="rgba(255,255,255,0.035)"/>
<path d="M288 0 V520" stroke="rgba(255,255,255,0.035)"/>
<path d="M336 0 V520" stroke="rgba(255,255,255,0.035)"/>
<path d="M384 0 V520" stroke="rgba(255,255,255,0.035)"/>
<path d="M432 0 V520" stroke="rgba(255,255,255,0.035)"/>
<path d="M480 0 V520" stroke="rgba(255,255,255,0.035)"/>
<path d="M528 0 V520" stroke="rgba(255,255,255,0.035)"/>
<path d="M576 0 V520" stroke="rgba(255,255,255,0.035)"/>
<path d="M624 0 V520" stroke="rgba(255,255,255,0.035)"/>
<path d="M672 0 V520" stroke="rgba(255,255,255,0.035)"/>
<path d="M720 0 V520" stroke="rgba(255,255,255,0.035)"/>
<path d="M768 0 V520" stroke="rgba(255,255,255,0.035)"/>
<path d="M816 0 V520" stroke="rgba(255,255,255,0.035)"/>
<path d="M864 0 V520" stroke="rgba(255,255,255,0.035)"/>
<path d="M912 0 V520" stroke="rgba(255,255,255,0.035)"/>
<path d="M960 0 V520" stroke="rgba(255,255,255,0.035)"/>
<path d="M1008 0 V520" stroke="rgba(255,255,255,0.035)"/>
<path d="M1056 0 V520" stroke="rgba(255,255,255,0.035)"/>
<path d="M1104 0 V520" stroke="rgba(255,255,255,0.035)"/>
<path d="M1152 0 V520" stroke="rgba(255,255,255,0.035)"/>
<path d="M1200 0 V520" stroke="rgba(255,255,255,0.035)"/>
<path d="M0 0 H1200" stroke="rgba(255,255,255,0.035)"/>
<path d="M0 48 H1200" stroke="rgba(255,255,255,0.035)"/>
<path d="M0 96 H1200" stroke="rgba(255,255,255,0.035)"/>
<path d="M0 144 H1200" stroke="rgba(255,255,255,0.035)"/>
<path d="M0 192 H1200" stroke="rgba(255,255,255,0.035)"/>
<path d="M0 240 H1200" stroke="rgba(255,255,255,0.035)"/>
<path d="M0 288 H1200" stroke="rgba(255,255,255,0.035)"/>
<path d="M0 336 H1200" stroke="rgba(255,255,255,0.035)"/>
<path d="M0 384 H1200" stroke="rgba(255,255,255,0.035)"/>
<path d="M0 432 H1200" stroke="rgba(255,255,255,0.035)"/>
<path d="M0 480 H1200" stroke="rgba(255,255,255,0.035)"/>
  <rect x="26" y="26" width="1148" height="468" fill="rgba(255,255,255,0.02)" stroke="url(#edge)"/>
  <path d="M54 122 H1146" stroke="rgba(255,255,255,0.14)"/>
  <path d="M54 260 H1146" stroke="rgba(255,255,255,0.10)"/>
  <text x="54" y="78" font-size="36" font-weight="300" fill="#ffffff" opacity="1.00">HERMES EVOLUTION</text>
  <text x="57" y="106" font-size="13" font-weight="400" fill="#ffffff" opacity="0.52">// DAILY SELF-IMPROVEMENT SNAPSHOT</text>
  <text x="874" y="68" font-size="12" font-weight="500" fill="#ffffff" opacity="0.46">UPDATED</text>
  <text x="874" y="94" font-size="18" font-weight="400" fill="#ffffff" opacity="0.84">2026-07-29 00:31 CST</text>
  <text x="874" y="114" font-size="11" font-weight="400" fill="#ffffff" opacity="0.42">Snapshot 2026-07-28 · memory details redacted</text>
  <rect x="54" y="146" width="196" height="92" fill="rgba(255,255,255,0.035)" stroke="rgba(255,255,255,0.16)"/>
<text x="72" y="174" font-size="12" font-weight="500" fill="#ffffff" opacity="0.55">SKILLS</text>
<text x="72" y="208" font-size="30" font-weight="300" fill="#ffffff" opacity="1.00">115</text>
<text x="72" y="228" font-size="12" font-weight="400" fill="#ffffff" opacity="0.46">active 115</text>
  <rect x="274" y="146" width="196" height="92" fill="rgba(255,255,255,0.035)" stroke="rgba(255,255,255,0.16)"/>
<text x="292" y="174" font-size="12" font-weight="500" fill="#ffffff" opacity="0.55">SKILL DELTA</text>
<text x="292" y="208" font-size="30" font-weight="300" fill="#ffffff" opacity="1.00">+2 / Δ7 / -0</text>
<text x="292" y="228" font-size="12" font-weight="400" fill="#ffffff" opacity="0.46">activity +27 · patches +1</text>
  <rect x="494" y="146" width="196" height="92" fill="rgba(255,255,255,0.035)" stroke="rgba(255,255,255,0.16)"/>
<text x="512" y="174" font-size="12" font-weight="500" fill="#ffffff" opacity="0.55">MEMORY</text>
<text x="512" y="208" font-size="30" font-weight="300" fill="#ffffff" opacity="1.00">11</text>
<text x="512" y="228" font-size="12" font-weight="400" fill="#ffffff" opacity="0.46">public detail redacted</text>
  <rect x="714" y="146" width="196" height="92" fill="rgba(255,255,255,0.035)" stroke="rgba(255,255,255,0.16)"/>
<text x="732" y="174" font-size="12" font-weight="500" fill="#ffffff" opacity="0.55">MEMORY DELTA</text>
<text x="732" y="208" font-size="30" font-weight="300" fill="#ffffff" opacity="1.00">+1 / -0</text>
<text x="732" y="228" font-size="12" font-weight="400" fill="#ffffff" opacity="0.46">privacy-safe signal only</text>
  <rect x="934" y="146" width="196" height="92" fill="rgba(255,255,255,0.035)" stroke="rgba(255,255,255,0.16)"/>
<text x="952" y="174" font-size="12" font-weight="500" fill="#ffffff" opacity="0.55">CADENCE</text>
<text x="952" y="208" font-size="30" font-weight="300" fill="#ffffff" opacity="1.00">06:00</text>
<text x="952" y="228" font-size="12" font-weight="400" fill="#ffffff" opacity="0.46">daily CST automation</text>
  <text x="54" y="286" font-size="13" font-weight="500" fill="#ffffff" opacity="0.58">TODAY SIGNAL</text>
  <rect x="54" y="300" width="638" height="156" fill="rgba(255,255,255,0.025)" stroke="rgba(255,255,255,0.10)"/>
  <text x="74" y="314" font-size="14" font-weight="400" fill="#ffffff" opacity="0.74">+ agent-skill-discovery — Use when finding or installing GitHub agent s…</text>
<text x="74" y="342" font-size="14" font-weight="400" fill="#ffffff" opacity="0.74">+ humanizer-zh — Use when the user asks in Chinese to 去 AI 味 / 人性化改写 /…</text>
<text x="74" y="370" font-size="14" font-weight="400" fill="#ffffff" opacity="0.74">Δ claude-code · use +1, view +1</text>
<text x="74" y="398" font-size="14" font-weight="400" fill="#ffffff" opacity="0.74">Δ github-auth · use +1, view +1</text>
<text x="74" y="426" font-size="14" font-weight="400" fill="#ffffff" opacity="0.74">Memory map +1 added / 0 removed · details privacy-redacted.</text>
  <text x="740" y="286" font-size="13" font-weight="500" fill="#ffffff" opacity="0.58">7-DAY SIGNAL TIMELINE</text>
  <rect x="740" y="300" width="406" height="156" fill="rgba(255,255,255,0.025)" stroke="rgba(255,255,255,0.10)"/>
  <rect x="754" y="373" width="42" height="25" fill="rgba(255,255,255,0.16)" stroke="rgba(255,255,255,0.28)"/>
<text x="756" y="420" font-size="10" font-weight="400" fill="#ffffff" opacity="0.46">07-28</text>
<text x="766" y="365" font-size="11" font-weight="500" fill="#ffffff" opacity="0.72">10</text>
<rect x="812" y="384" width="42" height="14" fill="rgba(255,255,255,0.16)" stroke="rgba(255,255,255,0.28)"/>
<text x="814" y="420" font-size="10" font-weight="400" fill="#ffffff" opacity="0.46">07-27</text>
<text x="824" y="376" font-size="11" font-weight="500" fill="#ffffff" opacity="0.72">2</text>
<rect x="870" y="308" width="42" height="90" fill="rgba(255,255,255,0.16)" stroke="rgba(255,255,255,0.28)"/>
<text x="872" y="420" font-size="10" font-weight="400" fill="#ffffff" opacity="0.46">07-26</text>
<text x="882" y="300" font-size="11" font-weight="500" fill="#ffffff" opacity="0.72">60</text>
  <text x="54" y="482" font-size="12" font-weight="400" fill="#ffffff" opacity="0.40">systems at the bottom · agents at the edge · orchestration in the loop</text>
  <circle cx="1132" cy="472" r="5" fill="#ffffff" opacity="0.75" filter="url(#softGlow)"/>
  <circle cx="1112" cy="472" r="3" fill="#ffffff" opacity="0.35"/>
</svg>
